<svg width="17" height="16" viewBox="0 0 17 16" fill="none" xmlns="http://www.w3.org/2000/svg">
<path d="M8.5 1.44062C10.7594 1.44062 11.0281 1.45 11.9125 1.4875C12.7312 1.52187 13.1469 1.65312 13.4188 1.7625C13.7812 1.90625 14.0438 2.08125 14.3125 2.35C14.5844 2.61875 14.7562 2.87813 14.9 3.24063C15.0094 3.5125 15.1406 3.93125 15.175 4.75C15.2125 5.63437 15.2219 5.90312 15.2219 8.1625C15.2219 10.425 15.2125 10.6938 15.175 11.5781C15.1406 12.3969 15.0094 12.8125 14.9 13.0844C14.7562 13.4469 14.5812 13.7094 14.3125 13.9781C14.0438 14.25 13.7844 14.4219 13.4219 14.5656C13.15 14.675 12.7312 14.8062 11.9125 14.8406C11.0281 14.8781 10.7594 14.8875 8.5 14.8875C6.23751 14.8875 5.96876 14.8781 5.08439 14.8406C4.26564 14.8062 3.85001 14.675 3.57814 14.5656C3.21564 14.4219 2.95314 14.2469 2.68439 13.9781C2.41564 13.7094 2.24376 13.45 2.10001 13.0875C1.99064 12.8156 1.85939 12.3969 1.82501 11.5781C1.78751 10.6938 1.77814 10.425 1.77814 8.1625C1.77814 5.90312 1.78751 5.63437 1.82501 4.75C1.85939 3.93125 1.99064 3.51562 2.10001 3.24375C2.24376 2.88125 2.41876 2.61875 2.68751 2.35C2.95626 2.08125 3.21564 1.90937 3.57814 1.7625C3.85001 1.65312 4.26876 1.52187 5.08751 1.4875C5.97189 1.45 6.24064 1.44062 8.50001 1.44062H8.5ZM8.5 0C6.19689 0 5.90939 0.0125 5.01251 0.05C4.11876 0.0875 3.51564 0.225 2.99376 0.425C2.45001 0.63125 1.99064 0.90625 1.53439 1.36562C1.07501 1.82187 0.800011 2.28125 0.594386 2.825C0.394386 3.35 0.256886 3.95 0.219386 4.84062C0.181886 5.7375 0.169386 6.025 0.169386 8.32812C0.169386 10.6312 0.181886 10.9188 0.219386 11.8156C0.256886 12.7094 0.394386 13.3125 0.594386 13.8344C0.800011 14.3781 1.07501 14.8375 1.53439 15.2938C1.99064 15.75 2.45001 16.0281 2.99376 16.2312C3.51876 16.4312 4.11876 16.5688 5.01251 16.6062C5.90939 16.6438 6.19689 16.6562 8.5 16.6562C10.8031 16.6562 11.0906 16.6438 11.9875 16.6062C12.8812 16.5688 13.4844 16.4312 14.0062 16.2312C14.5469 16.0281 15.0062 15.75 15.4625 15.2938C15.9219 14.8375 16.2 14.3781 16.4031 13.8344C16.6031 13.3094 16.7406 12.7094 16.7781 11.8156C16.8156 10.9188 16.8281 10.6312 16.8281 8.32812C16.8281 6.025 16.8156 5.7375 16.7781 4.84062C16.7406 3.94687 16.6031 3.34375 16.4031 2.825C16.2 2.28125 15.9219 1.82187 15.4625 1.36562C15.0062 0.90625 14.5469 0.628125 14.0062 0.425C13.4812 0.225 12.8812 0.0875 11.9875 0.05C11.0906 0.0125 10.8031 0 8.5 0Z" fill="#191919"/>
<path d="M8.5 4.05469C6.09062 4.05469 4.14062 6.00469 4.14062 8.41407C4.14062 10.8234 6.09062 12.7734 8.5 12.7734C10.9094 12.7734 12.8594 10.8234 12.8594 8.41407C12.8594 6.00469 10.9094 4.05469 8.5 4.05469ZM8.5 11.3297C6.8875 11.3297 5.58125 10.0266 5.58125 8.41094C5.58125 6.79532 6.88438 5.49219 8.5 5.49219C10.1156 5.49219 11.4188 6.79532 11.4188 8.41094C11.4188 10.0266 10.1156 11.3297 8.5 11.3297Z" fill="#191919"/>
<path d="M14.0031 3.8875C14.0031 4.44375 13.5562 4.8875 13.0031 4.8875C12.4469 4.8875 12 4.44063 12 3.8875C12 3.33125 12.4469 2.8875 13.0031 2.8875C13.5562 2.8875 14.0031 3.33438 14.0031 3.8875Z" fill="#191919"/>
</svg>
