<svg width="17" height="16" viewBox="0 0 17 16" fill="none" xmlns="http://www.w3.org/2000/svg">
<path d="M8.58333 0C4.22083 0 0.666667 3.55417 0.666667 7.91667C0.666667 9.35 1.04167 10.7167 1.7 11.9167L0.708333 15.2917L4.175 14.3C5.33333 14.9 6.91667 15.25 8.58333 15.25C12.9458 15.25 16.5 11.6958 16.5 7.33333C16.5 3.0625 12.9458 0 8.58333 0ZM12.8708 11.1042C12.6917 11.6333 11.9375 12.0792 11.3417 12.1958C10.9333 12.2833 10.4083 12.35 8.525 11.6333C6.125 10.7167 4.58333 8.275 4.46667 8.125C4.35 7.975 3.5 6.85833 3.5 5.68333C3.5 4.50833 4.09167 3.95 4.325 3.71667C4.525 3.51667 4.81667 3.425 5.09167 3.425C5.18333 3.425 5.275 3.425 5.35833 3.425C5.55833 3.425 5.70833 3.425 5.85833 3.83333C6.04167 4.325 6.53333 5.5 6.59167 5.61667C6.65 5.73333 6.70833 5.88333 6.625 6.03333C6.55833 6.18333 6.5 6.24167 6.38333 6.39167C6.26667 6.54167 6.15833 6.65 6.04167 6.8C5.93333 6.91667 5.80833 7.04167 5.94167 7.25C6.075 7.45833 6.53333 8.21667 7.225 8.83333C8.08333 9.59167 8.8 9.825 9.03333 9.94167C9.21667 10.0292 9.43333 10.0083 9.58333 9.85833C9.76667 9.675 9.99167 9.36667 10.2167 9.06667C10.375 8.85 10.575 8.81667 10.7833 8.9C10.9917 8.98333 12.1667 9.56667 12.3917 9.675C12.6167 9.78333 12.7583 9.85 12.8167 9.94167C12.8708 10.0333 12.8708 10.575 12.6917 11.1042Z" fill="#191919"/>
</svg> 