<svg width="133" height="48" viewBox="0 0 133 48" fill="none" xmlns="http://www.w3.org/2000/svg">
    <path d="M26.8753 30.7229L20.3492 31.1401C15.7331 31.4351 13.1114 37.1114 16.1659 40.1659L20.1516 44.1516L40.304 23.9993L28.0859 11.7813L26.8753 30.7229Z" 
        fill="url(#paint0_linear)"/>
    <path d="M13.4287 17.2763L19.9548 16.8592C24.5708 16.5642 27.1926 10.8879 24.1381 7.83342L20.1523 3.84766L0 24L12.218 36.218L13.4287 17.2763Z" 
        fill="url(#paint1_linear)"/>
    <text x="30" y="30" font-size="12" font-family="Arial" font-weight="bold" fill="#22D1EE">LEADZSITE</text>
    <text x="30" y="40" font-size="8" font-family="Arial" fill="#C5FF41">Custom Business Solutions</text>
    <circle cx="65" cy="24" r="20" stroke="white" stroke-width="2"/>
    <path d="M50 10 L80 10 L65 40 Z" fill="url(#paint2_linear)"/>
    
    <defs>
        <linearGradient id="paint0_linear" x1="30.6157" y1="12.8716" x2="10.8675" y2="37.7455" gradientUnits="userSpaceOnUse">
            <stop stop-color="#22D1EE"/>
            <stop offset="1" stop-color="#C5FF41"/>
        </linearGradient>
        <linearGradient id="paint1_linear" x1="22.6821" y1="4.93801" x2="2.93395" y2="29.8119" gradientUnits="userSpaceOnUse">
            <stop stop-color="#22D1EE"/>
            <stop offset="1" stop-color="#C5FF41"/>
        </linearGradient>
        <linearGradient id="paint2_linear" x1="50" y1="10" x2="80" y2="40" gradientUnits="userSpaceOnUse">
            <stop stop-color="#22D1EE"/>
            <stop offset="1" stop-color="#C5FF41"/>
        </linearGradient>
    </defs>
</svg>
